<svg xmlns="http://www.w3.org/2000/svg" xmlns:xlink="http://www.w3.org/1999/xlink" version="1.1" x="0px" y="0px" viewBox="NaN NaN NaN 112.5"><g transform="translate(-25.5, -5.5)"><path d="M38.392,14.22 L76.549,14.392 L67.386,92.27 C67.327,92.774 66.9,93.153 66.393,93.153 L45.273,93.153 C44.726,93.153 44.28,92.713 44.273,92.166 C44.273,92.1 44.273,92.1 44.269,91.812 C44.266,91.533 44.263,91.227 44.26,90.903 C44.254,90.278 44.25,89.664 44.248,89.088 C44.243,87.708 44.25,86.714 44.273,86.286 C44.273,81.007 39.993,76.727 34.764,76.725 C34.505,76.738 34.304,76.746 34.143,76.749 C34.036,76.751 33.959,76.751 33.877,76.75 C33.876,76.75 33.916,76.744 33.74,76.78 C33.12,76.907 32.54,76.433 32.54,75.8 L32.54,17.789 L33.395,17.875 C36.155,17.645 37.348,16.703 38.392,14.22 z M56.034,48.743 C56.034,48.744 56.034,48.744 53.097,53.789 C53.097,53.789 53.097,53.789 56.034,58.8 L56.034,56.692 C56.034,56.692 56.034,56.692 59.628,56.692 C60.043,56.692 60.319,56.45 60.458,56.174 C60.458,56.174 60.458,56.174 63.706,50.437 C63.533,50.541 63.43,50.713 62.773,50.783 L56.034,50.782 C56.034,50.783 56.034,50.783 56.034,48.744 L56.034,48.743 z M41.105,50.506 C42.19,52.326 43.209,54.189 44.25,56.035 C44.457,56.346 44.734,56.727 45.114,56.692 L51.576,56.692 C51.576,56.692 51.576,56.692 51.576,50.782 L41.969,50.782 C41.287,50.678 41.565,50.798 41.105,50.506 z M45.356,42.834 L39.55,42.834 C39.55,42.834 39.55,42.834 41.382,43.905 C41.382,43.905 41.382,43.905 40.207,45.875 C39.17,47.81 40.898,49.944 41.934,50.057 L44.63,50.057 L46.461,46.877 C46.462,46.877 46.462,46.877 48.293,47.88 C48.293,47.88 48.293,47.88 45.356,42.834 L45.356,42.834 z M62.047,41.624 C62.047,41.625 62.047,41.625 56.967,44.527 L60.181,50.022 C60.181,50.022 60.181,50.022 62.911,50.022 C64.017,49.815 65.676,48.018 64.708,46.152 C64.708,46.152 64.708,46.152 62.047,41.625 L62.047,41.624 z M49.047,34.543 C47.998,34.58 46.952,34.531 46.289,35.508 C46.289,35.508 46.289,35.508 43.662,40.104 C43.662,40.104 43.662,40.104 48.708,43.041 L51.922,37.443 C51.922,37.443 51.922,37.443 50.643,35.3 C49.904,34.673 50.394,34.999 49.047,34.543 L49.047,34.543 z M57.175,34.16 L50.367,34.16 C50.747,34.229 51.162,34.575 51.369,34.851 L54.721,40.657 C54.721,40.657 54.721,40.657 52.993,41.694 L58.73,41.694 C58.73,41.694 58.73,41.694 61.598,36.717 C61.598,36.717 61.598,36.717 59.836,37.719 C59.836,37.719 59.836,37.719 58.073,34.609 C57.9,34.298 57.555,34.16 57.175,34.16 L57.175,34.16 z" fill="#000000"/><path d="M75.721,5.501 C76.121,5.478 76.496,5.695 76.674,6.053 L79.607,11.919 C79.94,12.584 79.457,13.367 78.713,13.367 L76.669,13.366 L38.697,13.222 L38.77,12.5 C38.694,10.45 37.65,8.569 35.72,7.757 L75.721,5.501 z" fill="#000000"/><path d="M33.395,8.125 C35.811,8.125 37.77,10.084 37.77,12.5 C37.77,14.916 35.811,16.875 33.395,16.875 C31.001,16.777 29.281,15.086 29.043,12.727 C29.07,10.823 30.002,9.988 31.241,8.749 C32.785,8.099 32.055,8.26 33.395,8.125 L33.395,8.125 z" fill="#000000"/><path d="M33.827,78.847 C38.425,78.847 42.153,82.575 42.153,87.173 C42.153,91.772 38.425,95.5 33.827,95.5 C29.228,95.5 25.5,91.772 25.5,87.173 C25.5,82.575 29.228,78.847 33.827,78.847 z" fill="#000000"/><path d="M77.375,22.375 C77.306,22.375 77.25,22.347 77.25,22.312 C77.25,22.278 77.306,22.25 77.375,22.25 C77.444,22.25 77.5,22.278 77.5,22.312 C77.5,22.347 77.444,22.375 77.375,22.375 z" fill="#000000"/></g><text x="NaN" y="NaN" fill="#000000" font-size="5px" font-weight="bold" font-family="'Helvetica Neue', Helvetica, Arial-Unicode, Arial, Sans-serif">Created by Chris Homan</text><text x="NaN" y="NaN" fill="#000000" font-size="5px" font-weight="bold" font-family="'Helvetica Neue', Helvetica, Arial-Unicode, Arial, Sans-serif">from the Noun Project</text></svg>